# xmcd
#
# Track frame offsets:
#	150
#	13718
#	35247
#	43917
#	58212
#	70281
#	82389
#	91016
#	105323
#	116912
#	126346
#	138670
#	156405
#	172259
#	183090
#	196882
#	207884
#	226382
#	235375
#	246455
#	263220
#	274964
#	286797
#	297050
#	306469
#	312937
#	326826
#
# Disc length: 4522 seconds
#
# Revision: 11
# Processed by: cddbd v1.5.2PL0 Copyright (c) Steve Scherf et al.
# Submitted via: audiograbber 1.83.01
#
DISCID=ad11a81b
DTITLE=The Beatles - THE BEATLES (White Album) And Esher Demos (2018 50th Anniv
DTITLE=ersary 3CD Limited Deluxe Edition) [Box-Set] [CD 3)
DYEAR=2018
DGENRE=Pop
TTITLE0=Back In The U.S.S.R. (Esher Demo)
TTITLE1=Dear Prudence (Esher Demo)
TTITLE2=Glass Onion (Esher Demo)
TTITLE3=Ob-La-Di, Ob-La-Da (Esher Demo)
TTITLE4=The Continuing Story Of Bungalow Bill (Esher Demo)
TTITLE5=While My Guitar Gently Weeps (Esher Demo)
TTITLE6=Happiness Is A Warm Gun (Esher Demo)
TTITLE7=I'm So Tired (Esher Demo)
TTITLE8=Blackbird (Esher Demo)
TTITLE9=Piggies (Esher Demo)
TTITLE10=Rocky Raccoon (Esher Demo)
TTITLE11=Julia (Esher Demo)
TTITLE12=Yer Blues (Esher Demo)
TTITLE13=Mother Nature's Son (Esher Demo)
TTITLE14=Everybody's Got Something To Hide Except Me And My Monkey (Esher Demo)
TTITLE15=Sexy Sadie (Esher Demo)
TTITLE16=Revolution (Esher Demo)
TTITLE17=Honey Pie (Esher Demo)
TTITLE18=Cry Baby Cry (Esher Demo)
TTITLE19=Sour Milk Sea (Esher Demo)
TTITLE20=Junk (Esher Demo)
TTITLE21=Child Of Nature (Esher Demo)
TTITLE22=Circles (Esher Demo)
TTITLE23=Mean Mr. Mustard (Esher Demo)
TTITLE24=Polythene Pam (Esher Demo)
TTITLE25=Not Guilty (Esher Demo)
TTITLE26=What's The New Mary Jane (Esher Demo)
EXTD=MARO\n
EXTT0=
EXTT1=
EXTT2=
EXTT3=
EXTT4=
EXTT5=
EXTT6=
EXTT7=
EXTT8=
EXTT9=
EXTT10=
EXTT11=
EXTT12=
EXTT13=
EXTT14=
EXTT15=
EXTT16=
EXTT17=
EXTT18=
EXTT19=
EXTT20=
EXTT21=
EXTT22=
EXTT23=
EXTT24=
EXTT25=
EXTT26=
PLAYORDER=
